<?xml version="1.0" encoding="UTF-8" standalone="no"?>
<!-- Created with Inkscape (http://www.inkscape.org/) -->

<svg
   xmlns:dc="http://purl.org/dc/elements/1.1/"
   xmlns:cc="http://creativecommons.org/ns#"
   xmlns:rdf="http://www.w3.org/1999/02/22-rdf-syntax-ns#"
   xmlns:svg="http://www.w3.org/2000/svg"
   xmlns="http://www.w3.org/2000/svg"
   xmlns:sodipodi="http://sodipodi.sourceforge.net/DTD/sodipodi-0.dtd"
   xmlns:inkscape="http://www.inkscape.org/namespaces/inkscape"
   width="300"
   height="300"
   viewBox="0 0 300 300"
   id="svg2"
   version="1.1"
   inkscape:version="0.91 r13725"
   sodipodi:docname="varlink.svg"
   inkscape:export-filename="/home/kay/TODO/varlink.png"
   inkscape:export-xdpi="90"
   inkscape:export-ydpi="90">
  <defs
     id="defs4" />
  <sodipodi:namedview
     id="base"
     pagecolor="#ffffff"
     bordercolor="#666666"
     borderopacity="1.0"
     inkscape:pageopacity="0.0"
     inkscape:pageshadow="2"
     inkscape:zoom="1.979899"
     inkscape:cx="92.543695"
     inkscape:cy="124.72599"
     inkscape:document-units="px"
     inkscape:current-layer="layer1"
     showgrid="false"
     units="px"
     inkscape:window-width="1920"
     inkscape:window-height="1016"
     inkscape:window-x="0"
     inkscape:window-y="27"
     inkscape:window-maximized="1" />
  <metadata
     id="metadata7">
    <rdf:RDF>
      <cc:Work
         rdf:about="">
        <dc:format>image/svg+xml</dc:format>
        <dc:type
           rdf:resource="http://purl.org/dc/dcmitype/StillImage" />
        <dc:title></dc:title>
      </cc:Work>
    </rdf:RDF>
  </metadata>
  <g
     inkscape:label="Layer 1"
     inkscape:groupmode="layer"
     id="layer1"
     transform="translate(0,-752.36216)">
    <g
       id="g4757"
       transform="matrix(1.1359426,0.25825925,0.2582517,1.1361176,-253.39646,-161.62669)">
      <path
         inkscape:connector-curvature="0"
         id="path4755"
         d="m 289.26402,812.53887 c -1.2559,-8.0619 -4.5452,-16.47839 -9.2723,-23.72542 -2.6829,-4.1131 -12.1688,-13.64854 -16.1537,-16.23806 -18.96033,-12.32108 -41.14428,-13.55243 -60.84586,-3.37733 -2.62798,1.35724 -6.32931,3.65713 -8.22531,5.11088 -5.51236,4.22669 -82.55276,81.84115 -85.02667,85.66029 -10.465315,16.15599 -12.872085,35.12614 -6.70047,52.81321 4.17317,11.95984 12.45161,22.68775 22.92426,29.70728 l 4.60451,3.08627 8.60029,-8.57174 c 9.94503,-9.912 11.05832,-11.71541 11.06751,-17.928 0.007,-4.92163 -1.23721,-7.69492 -5.62631,-12.53792 -9.46602,-10.445 -10.77702,-24.82585 -3.32594,-36.48376 2.9453,-4.6082 61.21704,-63.00367 65.63393,-65.77327 5.86214,-3.67585 8.78425,-4.47168 16.41919,-4.47168 5.89777,0 7.29427,0.1782 10.12521,1.29206 18.06466,7.10773 25.40746,28.05237 15.45746,44.0908 -0.9337,1.50504 -10.26585,11.3562 -20.73803,21.89148 l -19.04027,19.15506 1.31815,4.27204 c 2.6624,8.62877 3.75707,21.7683 2.5314,30.38627 l -0.41473,2.91566 31.94067,-31.92188 c 20.85931,-20.84699 32.86061,-33.251 34.59211,-35.75289 9.0443,-13.06854 12.5598,-28.16192 10.1549,-43.59935 z m -89.80305,88.75389 c -3.06403,-16.48457 -13.04673,-31.3444 -26.82569,-39.93143 l -3.03536,-1.89164 -8.90042,9.00637 c -7.86891,7.96257 -9.01613,9.35522 -9.89877,12.01644 -2.17535,6.5589 -1.06029,11.4124 3.9256,17.0867 9.57836,10.90092 11.51272,23.2379 5.55878,35.45287 -1.56055,3.20159 -4.93962,6.7636 -33.78646,35.6156 -26.920745,26.92555 -32.578275,32.32893 -35.336355,33.74893 -13.97602,7.1955 -30.83938,2.886 -39.44655,-10.0808 -6.46001,-9.73204 -6.53437,-22.61891 -0.18747,-32.48938 1.49433,-2.32393 8.63939,-9.93155 20.85987,-22.21033 l 18.58704,-18.67568 -1.16841,-3.76309 c -0.64263,-2.0697 -1.55022,-5.48705 -2.01687,-7.5941 -1.04226,-4.70616 -1.56665,-19.09543 -0.85488,-23.45843 l 0.52347,-3.2088 -31.44555,31.3941 c -17.29507,17.26674 -32.67837,32.9949 -34.18513,34.95145 -3.38367,4.39376 -8.23735,14.21886 -9.73241,19.70087 -3.7164497,13.62743 -2.4577097,28.2249 3.5253,40.88249 3.18102,6.7297 5.76803,10.532 10.68462,15.7039 5.57727,5.8669 10.10369,9.1949 17.24117,12.6767 7.16368,3.4945 12.17291,4.9463 20.1121,5.8291 6.83138,0.7596 14.94648,0.093 21.75844,-1.7868 5.37058,-1.4822 13.21715,-5.2211 18.187515,-8.6663 2.7445,-1.9024 16.45851,-15.2711 44.25203,-43.13785 43.58254,-43.69738 43.29041,-43.36816 47.72842,-53.79453 3.02529,-7.10741 4.23295,-12.82859 4.50436,-21.33939 0.16864,-5.286 -0.01,-8.71114 -0.62839,-12.03697 z"
         style="fill:#000000" />
    </g>
  </g>
</svg>
